<svg width="788" height="338" viewBox="0 0 788 338" fill="none" xmlns="http://www.w3.org/2000/svg">
<path fill-rule="evenodd" clip-rule="evenodd" d="M787 338H1.52588e-05V174C-0.00405884 162.242 1.17891 150.494 3.53098 138.953C8.08768 116.689 16.9854 95.5405 29.716 76.7153C48.6017 48.7412 75.1937 26.8433 106.271 13.6743C116.797 9.2251 127.738 5.82886 138.933 3.53516C150.474 1.18188 162.222 -0.00244141 174 0.000244141H787V338V338Z" fill="#AFAAC1"/>
<path fill-rule="evenodd" clip-rule="evenodd" d="M788 338H16V174C15.9947 163.211 17.0812 152.407 19.2429 141.795C23.4321 121.314 31.6156 101.86 43.326 84.5432C60.6927 58.8186 85.147 38.6824 113.726 26.5742C123.405 22.4832 133.465 19.3601 143.759 17.2512C154.37 15.0876 165.171 13.9983 176 14.0002H788V338V338Z" fill="black"/>
<path fill-rule="evenodd" clip-rule="evenodd" d="M787 338H77V168C76.9697 148.873 82.6825 130.175 93.3987 114.328C103.817 98.8936 118.487 86.811 135.632 79.5442C147.454 74.541 160.163 71.9753 173 72.0002H787V338V338Z" fill="#1E1E1E"/>
<path fill-rule="evenodd" clip-rule="evenodd" d="M767.8 133H334C306.386 133 284 110.614 284 83.0002C284 55.386 306.386 33.0002 334 33.0002H767.8C774.39 32.9885 780.917 34.2874 787 36.8213V129.179C780.917 131.713 774.39 133.012 767.8 133H767.8Z" fill="black"/>
<path fill-rule="evenodd" clip-rule="evenodd" d="M496 86.0002C496 83.515 496.879 81.3936 498.636 79.6363C500.393 77.8789 502.515 77.0002 505 77.0002H602C604.485 77.0002 606.607 77.8789 608.364 79.6363C610.121 81.3936 611 83.515 611 86.0002C611 88.4855 610.121 90.6068 608.364 92.3642C606.607 94.1216 604.485 95.0002 602 95.0002H505C502.515 95.0002 500.393 94.1216 498.636 92.3642C496.879 90.6068 496 88.4855 496 86.0002V86.0002Z" fill="#2B2B29"/>
<circle cx="657" cy="86.0002" r="17" fill="#171717"/>
<circle cx="657" cy="86.0002" r="16" stroke="#2B2B29" stroke-width="2"/>
<circle cx="657" cy="86.0002" r="6" fill="#232A5E"/>
<path fill-rule="evenodd" clip-rule="evenodd" d="M781 303H125C116.163 303 109 295.837 109 287V245C109 236.164 116.163 229 125 229H781C783.426 228.993 785.82 229.543 788 230.608V301.391C785.821 302.456 783.426 303.007 781 303V303Z" fill="#323234"/>
<path d="M439.528 275.061L444.928 259.509H447.133L439.237 281.145L438.827 282.102C437.813 284.346 436.247 285.468 434.127 285.468C433.638 285.468 433.113 285.389 432.555 285.229L432.538 283.537L433.598 283.64C434.6 283.64 435.409 283.389 436.024 282.888C436.651 282.398 437.181 281.549 437.614 280.341L438.52 277.846L431.547 259.509H433.786L439.528 275.061ZM448.91 268.481C448.91 266.704 449.252 265.103 449.936 263.679C450.631 262.255 451.605 261.149 452.858 260.363C454.123 259.566 455.552 259.167 457.147 259.167C459.608 259.167 461.602 260.033 463.129 261.765C464.656 263.485 465.419 265.769 465.419 268.618V269.045C465.419 270.834 465.071 272.446 464.376 273.881C463.693 275.306 462.724 276.405 461.471 277.18C460.218 277.954 458.788 278.342 457.182 278.342C454.732 278.342 452.738 277.482 451.2 275.761C449.674 274.029 448.91 271.739 448.91 268.891V268.481ZM450.961 269.045C450.961 271.255 451.531 273.072 452.67 274.497C453.821 275.909 455.325 276.616 457.182 276.616C459.027 276.616 460.52 275.909 461.659 274.497C462.81 273.072 463.385 271.198 463.385 268.874V268.481C463.385 267.068 463.123 265.775 462.599 264.602C462.075 263.428 461.34 262.522 460.395 261.884C459.449 261.235 458.367 260.91 457.147 260.91C455.325 260.91 453.838 261.628 452.687 263.063C451.536 264.488 450.961 266.356 450.961 268.669V269.045ZM481.552 275.659C480.321 277.447 478.356 278.342 475.656 278.342C473.685 278.342 472.187 277.772 471.161 276.633C470.136 275.482 469.612 273.785 469.589 271.54V259.509H471.623V271.284C471.623 274.804 473.047 276.564 475.895 276.564C478.857 276.564 480.731 275.34 481.518 272.89V259.509H483.568V278H481.586L481.552 275.659ZM497.445 261.252C497.012 261.172 496.551 261.132 496.061 261.132C494.785 261.132 493.703 261.491 492.814 262.209C491.937 262.915 491.31 263.946 490.934 265.302V278H488.9V259.509H490.9L490.934 262.448C492.016 260.261 493.754 259.167 496.146 259.167C496.716 259.167 497.166 259.241 497.497 259.389L497.445 261.252ZM502.641 259.509L502.709 262.67C503.404 261.531 504.27 260.665 505.307 260.073C506.343 259.469 507.488 259.167 508.742 259.167C510.724 259.167 512.2 259.725 513.168 260.842C514.136 261.958 514.626 263.633 514.638 265.866V278H512.604V265.849C512.593 264.197 512.239 262.967 511.544 262.158C510.861 261.349 509.761 260.944 508.246 260.944C506.981 260.944 505.859 261.343 504.879 262.141C503.911 262.927 503.193 263.992 502.726 265.336V278H500.692V259.509H502.641ZM531.608 278C531.403 277.419 531.272 276.559 531.215 275.419C530.497 276.354 529.58 277.077 528.463 277.59C527.358 278.091 526.185 278.342 524.943 278.342C523.166 278.342 521.724 277.846 520.619 276.855C519.525 275.864 518.979 274.611 518.979 273.095C518.979 271.295 519.725 269.871 521.217 268.823C522.721 267.775 524.812 267.25 527.489 267.25H531.198V265.148C531.198 263.827 530.788 262.79 529.967 262.038C529.158 261.275 527.973 260.893 526.413 260.893C524.988 260.893 523.809 261.258 522.875 261.987C521.941 262.716 521.474 263.593 521.474 264.619L519.423 264.602C519.423 263.132 520.106 261.861 521.474 260.791C522.841 259.708 524.521 259.167 526.515 259.167C528.577 259.167 530.201 259.685 531.386 260.722C532.582 261.748 533.197 263.183 533.231 265.029V273.779C533.231 275.568 533.419 276.906 533.795 277.795V278H531.608ZM525.182 276.53C526.549 276.53 527.768 276.2 528.839 275.539C529.922 274.878 530.708 273.995 531.198 272.89V268.823H527.541C525.501 268.846 523.906 269.222 522.755 269.951C521.605 270.668 521.029 271.66 521.029 272.924C521.029 273.961 521.411 274.821 522.174 275.505C522.949 276.188 523.952 276.53 525.182 276.53ZM540.563 259.509L540.631 262.517C541.315 261.4 542.169 260.563 543.195 260.004C544.22 259.446 545.36 259.167 546.613 259.167C549.529 259.167 551.381 260.363 552.167 262.756C552.828 261.605 553.711 260.722 554.816 260.107C555.921 259.48 557.14 259.167 558.473 259.167C562.438 259.167 564.46 261.332 564.54 265.661V278H562.489V265.815C562.478 264.163 562.119 262.938 561.413 262.141C560.718 261.343 559.578 260.944 557.995 260.944C556.525 260.967 555.283 261.446 554.269 262.38C553.255 263.303 552.691 264.431 552.577 265.764V278H550.526V265.661C550.515 264.077 550.139 262.898 549.398 262.124C548.669 261.337 547.541 260.944 546.015 260.944C544.727 260.944 543.622 261.315 542.699 262.055C541.776 262.784 541.093 263.872 540.648 265.319V278H538.598V259.509H540.563ZM576.896 278.342C575.324 278.342 573.9 277.954 572.624 277.18C571.359 276.405 570.373 275.328 569.667 273.95C568.961 272.56 568.607 271.005 568.607 269.284V268.549C568.607 266.772 568.949 265.171 569.633 263.747C570.328 262.323 571.291 261.206 572.521 260.397C573.751 259.577 575.084 259.167 576.52 259.167C578.764 259.167 580.542 259.936 581.852 261.474C583.174 263.001 583.834 265.091 583.834 267.746V268.891H570.641V269.284C570.641 271.381 571.239 273.129 572.436 274.531C573.643 275.921 575.159 276.616 576.981 276.616C578.075 276.616 579.038 276.416 579.87 276.018C580.713 275.619 581.476 274.981 582.16 274.104L583.441 275.078C581.938 277.254 579.756 278.342 576.896 278.342ZM576.52 260.91C574.982 260.91 573.683 261.474 572.624 262.602C571.575 263.73 570.937 265.245 570.709 267.148H581.801V266.926C581.744 265.148 581.237 263.701 580.28 262.585C579.323 261.468 578.069 260.91 576.52 260.91ZM587.628 276.77C587.628 276.371 587.754 276.035 588.004 275.761C588.266 275.476 588.625 275.334 589.081 275.334C589.537 275.334 589.896 275.476 590.158 275.761C590.42 276.035 590.551 276.371 590.551 276.77C590.551 277.168 590.42 277.499 590.158 277.761C589.896 278.011 589.537 278.137 589.081 278.137C588.625 278.137 588.266 278.011 588.004 277.761C587.754 277.499 587.628 277.168 587.628 276.77ZM600.617 273.745L600.924 275.334L601.334 273.659L605.778 259.509H607.521L611.913 273.54L612.392 275.488L612.785 273.693L616.579 259.509H618.698L613.314 278H611.571L606.82 263.337L606.598 262.329L606.376 263.354L601.71 278H599.967L594.601 259.509H596.703L600.617 273.745ZM634.25 278C634.044 277.419 633.913 276.559 633.856 275.419C633.139 276.354 632.222 277.077 631.105 277.59C630 278.091 628.826 278.342 627.584 278.342C625.807 278.342 624.366 277.846 623.261 276.855C622.167 275.864 621.62 274.611 621.62 273.095C621.62 271.295 622.366 269.871 623.859 268.823C625.363 267.775 627.453 267.25 630.131 267.25H633.839V265.148C633.839 263.827 633.429 262.79 632.609 262.038C631.8 261.275 630.615 260.893 629.054 260.893C627.63 260.893 626.451 261.258 625.517 261.987C624.582 262.716 624.115 263.593 624.115 264.619L622.064 264.602C622.064 263.132 622.748 261.861 624.115 260.791C625.482 259.708 627.163 259.167 629.157 259.167C631.219 259.167 632.842 259.685 634.027 260.722C635.224 261.748 635.839 263.183 635.873 265.029V273.779C635.873 275.568 636.061 276.906 636.437 277.795V278H634.25ZM627.824 276.53C629.191 276.53 630.41 276.2 631.481 275.539C632.563 274.878 633.349 273.995 633.839 272.89V268.823H630.182C628.143 268.846 626.548 269.222 625.397 269.951C624.246 270.668 623.671 271.66 623.671 272.924C623.671 273.961 624.053 274.821 624.816 275.505C625.591 276.188 626.593 276.53 627.824 276.53ZM646.828 275.18L652.45 259.509H654.552L647.648 278H645.99L639.052 259.509H641.154L646.828 275.18ZM660.209 278H658.158V259.509H660.209V278ZM657.799 254.16C657.799 253.772 657.925 253.448 658.175 253.186C658.426 252.912 658.768 252.775 659.201 252.775C659.634 252.775 659.975 252.912 660.226 253.186C660.488 253.448 660.619 253.772 660.619 254.16C660.619 254.547 660.488 254.872 660.226 255.134C659.975 255.396 659.634 255.527 659.201 255.527C658.768 255.527 658.426 255.396 658.175 255.134C657.925 254.872 657.799 254.547 657.799 254.16ZM677.675 275.659C676.444 277.447 674.479 278.342 671.779 278.342C669.808 278.342 668.31 277.772 667.284 276.633C666.259 275.482 665.735 273.785 665.712 271.54V259.509H667.746V271.284C667.746 274.804 669.17 276.564 672.018 276.564C674.98 276.564 676.854 275.34 677.641 272.89V259.509H679.691V278H677.709L677.675 275.659ZM686.886 259.509L686.955 262.517C687.638 261.4 688.493 260.563 689.518 260.004C690.543 259.446 691.683 259.167 692.936 259.167C695.853 259.167 697.704 260.363 698.49 262.756C699.151 261.605 700.034 260.722 701.139 260.107C702.244 259.48 703.463 259.167 704.796 259.167C708.761 259.167 710.784 261.332 710.863 265.661V278H708.812V265.815C708.801 264.163 708.442 262.938 707.736 262.141C707.041 261.343 705.902 260.944 704.318 260.944C702.848 260.967 701.606 261.446 700.592 262.38C699.578 263.303 699.014 264.431 698.9 265.764V278H696.85V265.661C696.838 264.077 696.462 262.898 695.722 262.124C694.993 261.337 693.865 260.944 692.338 260.944C691.05 260.944 689.945 261.315 689.022 262.055C688.1 262.784 687.416 263.872 686.972 265.319V278H684.921V259.509H686.886ZM715.871 276.77C715.871 276.371 715.996 276.035 716.247 275.761C716.509 275.476 716.868 275.334 717.323 275.334C717.779 275.334 718.138 275.476 718.4 275.761C718.662 276.035 718.793 276.371 718.793 276.77C718.793 277.168 718.662 277.499 718.4 277.761C718.138 278.011 717.779 278.137 717.323 278.137C716.868 278.137 716.509 278.011 716.247 277.761C715.996 277.499 715.871 277.168 715.871 276.77ZM731.269 276.616C732.693 276.616 733.883 276.217 734.84 275.419C735.809 274.611 736.333 273.568 736.413 272.292H738.378C738.321 273.42 737.968 274.451 737.318 275.385C736.669 276.308 735.803 277.032 734.721 277.556C733.65 278.08 732.499 278.342 731.269 278.342C728.842 278.342 726.916 277.499 725.492 275.812C724.079 274.126 723.373 271.859 723.373 269.011V268.396C723.373 266.573 723.692 264.96 724.33 263.559C724.968 262.158 725.88 261.075 727.064 260.312C728.261 259.549 729.656 259.167 731.251 259.167C733.279 259.167 734.949 259.771 736.259 260.979C737.58 262.186 738.287 263.776 738.378 265.747H736.413C736.321 264.3 735.797 263.132 734.84 262.243C733.895 261.354 732.698 260.91 731.251 260.91C729.406 260.91 727.97 261.577 726.945 262.91C725.931 264.243 725.424 266.111 725.424 268.515V269.113C725.424 271.472 725.931 273.312 726.945 274.633C727.97 275.955 729.411 276.616 731.269 276.616ZM741.352 268.481C741.352 266.704 741.693 265.103 742.377 263.679C743.072 262.255 744.046 261.149 745.299 260.363C746.564 259.566 747.994 259.167 749.589 259.167C752.05 259.167 754.044 260.033 755.57 261.765C757.097 263.485 757.86 265.769 757.86 268.618V269.045C757.86 270.834 757.513 272.446 756.818 273.881C756.134 275.306 755.166 276.405 753.913 277.18C752.659 277.954 751.229 278.342 749.623 278.342C747.174 278.342 745.18 277.482 743.642 275.761C742.115 274.029 741.352 271.739 741.352 268.891V268.481ZM743.402 269.045C743.402 271.255 743.972 273.072 745.111 274.497C746.262 275.909 747.766 276.616 749.623 276.616C751.469 276.616 752.961 275.909 754.101 274.497C755.251 273.072 755.827 271.198 755.827 268.874V268.481C755.827 267.068 755.565 265.775 755.041 264.602C754.516 263.428 753.782 262.522 752.836 261.884C751.89 261.235 750.808 260.91 749.589 260.91C747.766 260.91 746.279 261.628 745.128 263.063C743.978 264.488 743.402 266.356 743.402 268.669V269.045Z" fill="#84E575"/>
<path d="M157.877 272.362H150.431L148.759 277H146.342L153.129 259.227H155.18L161.979 277H159.574L157.877 272.362ZM151.139 270.433H157.182L154.154 262.12L151.139 270.433ZM174.186 272.362H166.74L165.067 277H162.65L169.438 259.227H171.488L178.288 277H175.883L174.186 272.362ZM167.448 270.433H173.49L170.463 262.12L167.448 270.433Z" fill="white"/>
<path d="M197.353 133.475C196.249 134.559 194.96 135.101 193.485 135.101C191.601 135.101 190.092 134.456 188.959 133.167C187.826 131.868 187.26 130.12 187.26 127.923C187.26 126.527 187.562 125.247 188.168 124.085C188.783 122.913 189.638 122.005 190.731 121.361C191.825 120.706 193.056 120.379 194.423 120.379C195.829 120.379 197.079 120.731 198.173 121.434C199.267 122.137 200.116 123.148 200.722 124.466C201.327 125.784 201.635 127.293 201.645 128.992V130.56C201.645 134.115 200.761 136.907 198.993 138.939C197.226 140.97 194.721 142.054 191.479 142.191L190.438 142.205V138.675L191.376 138.66C195.058 138.494 197.05 136.766 197.353 133.475ZM194.525 131.864C195.209 131.864 195.795 131.688 196.283 131.336C196.781 130.985 197.157 130.56 197.411 130.062V128.319C197.411 126.883 197.138 125.77 196.591 124.979C196.044 124.188 195.312 123.792 194.394 123.792C193.544 123.792 192.846 124.183 192.299 124.964C191.752 125.736 191.479 126.707 191.479 127.879C191.479 129.041 191.742 129.998 192.27 130.75C192.807 131.492 193.559 131.864 194.525 131.864ZM205.058 139.92C205.058 139.246 205.282 138.699 205.731 138.28C206.19 137.86 206.762 137.65 207.445 137.65C208.139 137.65 208.71 137.86 209.159 138.28C209.618 138.699 209.848 139.246 209.848 139.92C209.848 140.584 209.623 141.126 209.174 141.546C208.725 141.956 208.148 142.161 207.445 142.161C206.752 142.161 206.181 141.956 205.731 141.546C205.282 141.126 205.058 140.584 205.058 139.92ZM205.058 127.923C205.058 127.249 205.282 126.702 205.731 126.282C206.19 125.863 206.762 125.653 207.445 125.653C208.139 125.653 208.71 125.863 209.159 126.282C209.618 126.702 209.848 127.249 209.848 127.923C209.848 128.587 209.623 129.129 209.174 129.549C208.725 129.959 208.148 130.164 207.445 130.164C206.752 130.164 206.181 129.959 205.731 129.549C205.282 129.129 205.058 128.587 205.058 127.923ZM225.668 133.973H228.085V137.386H225.668V142H221.435V137.386H212.689L212.499 134.72L221.391 120.672H225.668V133.973ZM216.718 133.973H221.435V126.444L221.156 126.927L216.718 133.973ZM240.653 142H236.42V125.682L231.366 127.249V123.807L240.199 120.643H240.653V142Z" fill="white"/>
<path fill-rule="evenodd" clip-rule="evenodd" d="M416.559 262.829V260.029C416.56 257.328 415.12 254.832 412.781 253.482C410.442 252.131 407.56 252.131 405.222 253.482C402.883 254.833 401.443 257.329 401.444 260.03V262.829H398.959V269.488C398.959 275.034 403.454 279.529 409 279.529C414.545 279.529 419.041 275.034 419.041 269.488V262.829H416.559ZM409.794 272.229V274.701H408.207V272.231C406.811 271.836 405.92 270.471 406.12 269.034C406.32 267.597 407.549 266.527 409 266.527C410.45 266.527 411.679 267.597 411.879 269.034C412.078 270.471 411.188 271.836 409.792 272.231L409.794 272.229ZM414.973 262.829H403.028V260.029C403.028 256.731 405.702 254.057 409 254.057C412.298 254.057 414.972 256.731 414.972 260.029L414.973 262.829Z" fill="#80E770"/>
</svg>
